<svg width="66" height="66" viewBox="0 0 66 66" fill="none" xmlns="http://www.w3.org/2000/svg">
<rect x="2.0625" y="2" width="62" height="62" rx="31" stroke="#F26CF9" stroke-width="3"/>
<path d="M15.2551 18.9464L20.5051 13.6964C20.7514 13.4501 21.0854 13.3118 21.4337 13.3118C21.782 13.3118 22.1161 13.4501 22.3623 13.6964C22.6086 13.9427 22.747 14.2767 22.747 14.625C22.747 14.9733 22.6086 15.3073 22.3623 15.5536L22.1195 15.7948L31.1708 22.5837L37.4413 23.8387C37.6952 23.8896 37.9286 24.014 38.1123 24.1964L51.7853 37.8661C52.5237 38.6045 52.9385 39.606 52.9385 40.6502C52.9385 41.6945 52.5237 42.696 51.7853 43.4344L44.9931 50.2266C44.2547 50.9649 43.2532 51.3797 42.209 51.3797C41.1647 51.3797 40.1632 50.9649 39.4248 50.2266L25.7551 36.5585C25.5723 36.375 25.4479 36.1416 25.3975 35.8875L24.1424 29.617L17.3535 20.5657L17.1123 20.8085C16.9904 20.9305 16.8456 21.0272 16.6863 21.0932C16.527 21.1592 16.3562 21.1931 16.1837 21.1931C16.0113 21.1931 15.8405 21.1592 15.6812 21.0932C15.5219 21.0272 15.3771 20.9305 15.2551 20.8085C15.1332 20.6866 15.0365 20.5418 14.9705 20.3825C14.9045 20.2231 14.8705 20.0524 14.8705 19.8799C14.8705 19.7075 14.9045 19.5367 14.9705 19.3774C15.0365 19.218 15.1332 19.0733 15.2551 18.9513V18.9464ZM39.8087 29.6055L31.1643 38.25L38.4962 45.582L47.1407 36.9375L39.8087 29.6055ZM42.209 48.75C42.3812 48.7505 42.5518 48.7168 42.7109 48.6509C42.87 48.585 43.0145 48.4882 43.1359 48.3661L49.9248 41.5772C50.1708 41.3311 50.309 40.9974 50.309 40.6494C50.309 40.3015 50.1708 39.9678 49.9248 39.7216L48.9962 38.793L40.3518 47.4375L41.2853 48.3661C41.5304 48.611 41.8625 48.749 42.209 48.75ZM26.4212 28.275C26.5389 28.4316 26.6197 28.6127 26.6575 28.8049L27.8929 34.9786L29.3087 36.3945L37.9532 27.75L36.5373 26.3341L30.3637 25.0987C30.1715 25.0609 29.9903 24.9802 29.8337 24.8625L20.2443 17.67L19.2287 18.6855L26.4212 28.275Z" fill="#37437D"/>
<path d="M58.208 7.10437L7.20801 58.1044" stroke="#F26CF9" stroke-width="3"/>
</svg>
