<svg width="66" height="66" viewBox="0 0 66 66" fill="none" xmlns="http://www.w3.org/2000/svg">
<rect x="2.4375" y="2" width="62" height="62" rx="31" stroke="#F26CF9" stroke-width="3"/>
<path d="M34.9376 31.6875V40.875C34.9376 41.2231 34.7993 41.5569 34.5532 41.8031C34.307 42.0492 33.9732 42.1875 33.6251 42.1875C33.277 42.1875 32.9432 42.0492 32.697 41.8031C32.4509 41.5569 32.3126 41.2231 32.3126 40.875V31.6875C32.3126 31.3394 32.4509 31.0056 32.697 30.7594C32.9432 30.5133 33.277 30.375 33.6251 30.375C33.9732 30.375 34.307 30.5133 34.5532 30.7594C34.7993 31.0056 34.9376 31.3394 34.9376 31.6875ZM40.9816 31.5563L40.0629 40.7438C40.0447 40.9158 40.0608 41.0897 40.1101 41.2555C40.1593 41.4213 40.2409 41.5757 40.3501 41.7099C40.4592 41.844 40.5938 41.9553 40.7462 42.0373C40.8985 42.1192 41.0655 42.1703 41.2376 42.1875C41.2818 42.19 41.3262 42.19 41.3705 42.1875C41.6956 42.1871 42.0089 42.0661 42.2499 41.8478C42.4909 41.6296 42.6423 41.3297 42.6748 41.0063L43.5935 31.8188C43.6283 31.4724 43.5241 31.1264 43.3038 30.8569C43.0835 30.5874 42.7652 30.4164 42.4188 30.3816C42.0725 30.3468 41.7265 30.451 41.457 30.6713C41.1874 30.8916 41.0165 31.2099 40.9816 31.5563ZM26.2685 31.5563C26.2337 31.2099 26.0627 30.8916 25.7932 30.6713C25.5237 30.451 25.1777 30.3468 24.8313 30.3816C24.485 30.4164 24.1666 30.5874 23.9463 30.8569C23.726 31.1264 23.6218 31.4724 23.6566 31.8188L24.5754 41.0063C24.608 41.3311 24.7606 41.6322 25.0033 41.8506C25.246 42.069 25.5614 42.1891 25.8879 42.1875C25.9322 42.19 25.9765 42.19 26.0208 42.1875C26.1923 42.1703 26.3587 42.1194 26.5106 42.0379C26.6624 41.9563 26.7967 41.8457 26.9058 41.7122C27.0149 41.5788 27.0966 41.4251 27.1463 41.2601C27.196 41.095 27.2127 40.9218 27.1955 40.7503L26.2685 31.5563ZM51.9886 26.6114L49.5162 45.1603C49.4299 45.7898 49.1191 46.367 48.641 46.7854C48.1628 47.2039 47.5495 47.4355 46.9141 47.4375H20.336C19.7006 47.4355 19.0874 47.2039 18.6092 46.7854C18.1311 46.367 17.8202 45.7898 17.734 45.1603L15.2616 26.6114C15.2368 26.426 15.2519 26.2374 15.306 26.0584C15.36 25.8793 15.4517 25.7138 15.5749 25.5731C15.6981 25.4323 15.8499 25.3195 16.0203 25.2422C16.1906 25.165 16.3755 25.125 16.5626 25.125H23.842L32.6407 15.0729C32.7639 14.9332 32.9154 14.8214 33.0851 14.7448C33.2548 14.6682 33.4389 14.6285 33.6251 14.6285C33.8113 14.6285 33.9954 14.6682 34.1651 14.7448C34.3348 14.8214 34.4863 14.9332 34.6095 15.0729L43.4081 25.125H50.6876C50.8746 25.125 51.0595 25.165 51.2299 25.2422C51.4002 25.3195 51.5521 25.4323 51.6753 25.5731C51.7985 25.7138 51.8902 25.8793 51.9442 26.0584C51.9983 26.2374 52.0134 26.426 51.9886 26.6114ZM27.33 25.125H39.9202L33.6251 17.9309L27.33 25.125ZM49.1881 27.75H18.0621L20.336 44.8125H46.9141L49.1881 27.75Z" fill="#37437D"/>
<path d="M58.583 7.10437L7.58301 58.1044" stroke="#F26CF9" stroke-width="3"/>
</svg>
