<svg width="66" height="66" viewBox="0 0 66 66" fill="none" xmlns="http://www.w3.org/2000/svg">
<rect x="1.8125" y="2" width="62" height="62" rx="31" stroke="#F26CF9" stroke-width="3"/>
<path d="M38.9063 25.125C39.8148 25.125 40.703 24.8556 41.4584 24.3508C42.2138 23.846 42.8026 23.1286 43.1503 22.2892C43.498 21.4498 43.589 20.5262 43.4117 19.6351C43.2345 18.744 42.797 17.9254 42.1545 17.283C41.5121 16.6405 40.6935 16.203 39.8024 16.0258C38.9113 15.8485 37.9877 15.9395 37.1483 16.2872C36.3089 16.6349 35.5915 17.2237 35.0867 17.9791C34.5819 18.7345 34.3125 19.6227 34.3125 20.5313C34.3125 21.7496 34.7965 22.918 35.658 23.7795C36.5195 24.641 37.6879 25.125 38.9063 25.125ZM38.9063 18.5625C39.2956 18.5625 39.6763 18.678 40 18.8943C40.3238 19.1106 40.5761 19.4181 40.7251 19.7778C40.8741 20.1376 40.9131 20.5334 40.8372 20.9153C40.7612 21.2972 40.5737 21.648 40.2984 21.9234C40.023 22.1987 39.6722 22.3862 39.2903 22.4622C38.9084 22.5381 38.5126 22.4991 38.1528 22.3501C37.7931 22.2011 37.4856 21.9488 37.2693 21.625C37.053 21.3013 36.9375 20.9206 36.9375 20.5313C36.9375 20.0091 37.1449 19.5083 37.5141 19.1391C37.8833 18.7699 38.3841 18.5625 38.9063 18.5625ZM44.8125 34.3125C43.5146 34.3125 42.2458 34.6974 41.1666 35.4185C40.0874 36.1396 39.2462 37.1645 38.7495 38.3636C38.2528 39.5628 38.1229 40.8823 38.3761 42.1553C38.6293 43.4283 39.2543 44.5976 40.1721 45.5154C41.0899 46.4332 42.2592 47.0582 43.5322 47.3114C44.8052 47.5646 46.1247 47.4347 47.3239 46.938C48.523 46.4413 49.5479 45.6001 50.269 44.5209C50.9901 43.4417 51.375 42.1729 51.375 40.875C51.375 39.1345 50.6836 37.4653 49.4529 36.2346C48.2222 35.0039 46.553 34.3125 44.8125 34.3125ZM44.8125 44.8125C44.0337 44.8125 43.2725 44.5816 42.6249 44.1489C41.9774 43.7163 41.4727 43.1013 41.1747 42.3818C40.8767 41.6623 40.7987 40.8706 40.9507 40.1068C41.1026 39.343 41.4776 38.6414 42.0283 38.0908C42.5789 37.5401 43.2805 37.1651 44.0443 37.0132C44.8081 36.8612 45.5998 36.9392 46.3193 37.2372C47.0388 37.5352 47.6538 38.0399 48.0864 38.6874C48.5191 39.335 48.75 40.0962 48.75 40.875C48.75 41.9193 48.3352 42.9208 47.5967 43.6592C46.8583 44.3977 45.8568 44.8125 44.8125 44.8125ZM21.1875 34.3125C19.8896 34.3125 18.6208 34.6974 17.5416 35.4185C16.4624 36.1396 15.6212 37.1645 15.1245 38.3636C14.6278 39.5628 14.4979 40.8823 14.7511 42.1553C15.0043 43.4283 15.6293 44.5976 16.5471 45.5154C17.4649 46.4332 18.6342 47.0582 19.9072 47.3114C21.1802 47.5646 22.4997 47.4347 23.6989 46.938C24.898 46.4413 25.9229 45.6001 26.644 44.5209C27.3651 43.4417 27.75 42.1729 27.75 40.875C27.75 40.0132 27.5803 39.1598 27.2505 38.3636C26.9207 37.5674 26.4373 36.844 25.8279 36.2346C25.2185 35.6252 24.4951 35.1418 23.6989 34.812C22.9027 34.4822 22.0493 34.3125 21.1875 34.3125ZM21.1875 44.8125C20.4087 44.8125 19.6475 44.5816 18.9999 44.1489C18.3524 43.7163 17.8477 43.1013 17.5497 42.3818C17.2517 41.6623 17.1737 40.8706 17.3257 40.1068C17.4776 39.343 17.8526 38.6414 18.4033 38.0908C18.9539 37.5401 19.6555 37.1651 20.4193 37.0132C21.1831 36.8612 21.9748 36.9392 22.6943 37.2372C23.4138 37.5352 24.0288 38.0399 24.4614 38.6874C24.8941 39.335 25.125 40.0962 25.125 40.875C25.125 41.9193 24.7102 42.9208 23.9717 43.6592C23.2333 44.3977 22.2318 44.8125 21.1875 44.8125ZM43.5 31.6875H36.9375C36.7651 31.6876 36.5943 31.6538 36.435 31.5879C36.2757 31.5221 36.1309 31.4254 36.0089 31.3036L31.6875 26.9805L28.293 30.375L33.9286 36.0089C34.0504 36.1309 34.1471 36.2757 34.2129 36.435C34.2788 36.5943 34.3126 36.7651 34.3125 36.9375V44.8125C34.3125 45.1606 34.1742 45.4944 33.9281 45.7406C33.6819 45.9867 33.3481 46.125 33 46.125C32.6519 46.125 32.3181 45.9867 32.0719 45.7406C31.8258 45.4944 31.6875 45.1606 31.6875 44.8125V37.4805L25.5089 31.3036C25.3869 31.1817 25.2901 31.0369 25.224 30.8776C25.158 30.7183 25.124 30.5475 25.124 30.375C25.124 30.2025 25.158 30.0317 25.224 29.8724C25.2901 29.7131 25.3869 29.5683 25.5089 29.4464L30.7589 24.1964C30.8808 24.0744 31.0256 23.9776 31.1849 23.9115C31.3442 23.8455 31.515 23.8115 31.6875 23.8115C31.86 23.8115 32.0308 23.8455 32.1901 23.9115C32.3494 23.9776 32.4942 24.0744 32.6161 24.1964L37.4805 29.0625H43.5C43.8481 29.0625 44.1819 29.2008 44.4281 29.4469C44.6742 29.6931 44.8125 30.0269 44.8125 30.375C44.8125 30.7231 44.6742 31.0569 44.4281 31.3031C44.1819 31.5492 43.8481 31.6875 43.5 31.6875Z" fill="#37437D"/>
<path d="M57.958 7.10437L6.95801 58.1044" stroke="#F26CF9" stroke-width="3"/>
</svg>
