<svg width="66" height="66" viewBox="0 0 66 66" fill="none" xmlns="http://www.w3.org/2000/svg">
<rect x="1.6875" y="2" width="62" height="62" rx="31" stroke="#F26CF9" stroke-width="3"/>
<g clip-path="url(#clip0_481_3266)">
<path d="M53.7618 42.9668L43.2618 19.3418C43.1587 19.1098 42.9905 18.9128 42.7776 18.7744C42.5647 18.6361 42.3163 18.5625 42.0625 18.5625H23.6875C23.4358 18.5629 23.1896 18.6357 22.9781 18.7721C22.7667 18.9085 22.5989 19.1028 22.4948 19.332C22.4943 19.3352 22.4943 19.3385 22.4948 19.3418V19.3615L11.9882 42.9668C11.8993 43.1666 11.8618 43.3855 11.8791 43.6035C11.8963 43.8215 11.9678 44.0317 12.0869 44.2151C12.2061 44.3985 12.3692 44.5492 12.5614 44.6535C12.7536 44.7578 12.9688 44.8125 13.1875 44.8125H52.5625C52.7812 44.8125 52.9964 44.7578 53.1886 44.6535C53.3808 44.5492 53.5439 44.3985 53.663 44.2151C53.7822 44.0317 53.8536 43.8215 53.8709 43.6035C53.8881 43.3855 53.8506 43.1666 53.7618 42.9668ZM22.375 42.1875H15.2071L22.375 26.0602V42.1875ZM25 42.1875V26.0602L32.1679 42.1875H25ZM35.0406 42.1875L25.7071 21.1875H41.2094L50.5429 42.1875H35.0406Z" fill="#37437D"/>
</g>
<path d="M57.833 7.10437L6.83301 58.1044" stroke="#F26CF9" stroke-width="3"/>
<defs>
<clipPath id="clip0_481_3266">
<rect width="42" height="42" fill="white" transform="translate(11.875 12)"/>
</clipPath>
</defs>
</svg>
