<svg width="66" height="66" viewBox="0 0 66 66" fill="none" xmlns="http://www.w3.org/2000/svg">
<rect x="1.8125" y="2" width="62" height="62" rx="31" stroke="#F26CF9" stroke-width="3"/>
<path d="M42.4631 29.1084C42.31 28.7934 42.1427 28.4872 41.9611 28.1897C43.0014 25.8965 43.1233 23.2918 42.3018 20.9115C41.4803 18.5312 39.7778 16.5562 37.5445 15.3928C37.2358 15.2318 36.8758 15.2 36.5436 15.3045C36.2115 15.4089 35.9345 15.6411 35.7735 15.9498C35.6125 16.2585 35.5807 16.6185 35.6852 16.9507C35.7896 17.2828 36.0218 17.5598 36.3305 17.7208C37.7653 18.4674 38.9078 19.6742 39.5748 21.1478C40.2418 22.6213 40.3946 24.2761 40.0088 25.8469C38.0849 24.1142 35.5875 23.1553 32.9984 23.1553C30.4092 23.1553 27.9118 24.1142 25.988 25.8469C25.6023 24.2757 25.7556 22.6206 26.4232 21.1471C27.0909 19.6735 28.2341 18.4669 29.6695 17.7208C29.8224 17.6411 29.9581 17.5321 30.0688 17.3999C30.1795 17.2678 30.2631 17.1151 30.3148 16.9507C30.3665 16.7862 30.3854 16.6132 30.3702 16.4414C30.3551 16.2697 30.3062 16.1026 30.2265 15.9498C30.1468 15.7969 30.0378 15.6613 29.9056 15.5505C29.7735 15.4398 29.6208 15.3562 29.4564 15.3045C29.2919 15.2528 29.1189 15.2339 28.9471 15.2491C28.7754 15.2643 28.6083 15.3131 28.4555 15.3928C26.2219 16.5559 24.5191 18.5308 23.6972 20.9111C22.8754 23.2915 22.9971 25.8963 24.0373 28.1897C23.8551 28.4861 23.6881 28.7917 23.5369 29.1051C21.0992 29.3396 18.8361 30.4732 17.1886 32.285C15.5411 34.0969 14.6272 36.4573 14.625 38.9062C14.625 39.2543 14.7633 39.5882 15.0094 39.8343C15.2556 40.0805 15.5894 40.2187 15.9375 40.2187C16.2856 40.2187 16.6194 40.0805 16.8656 39.8343C17.1117 39.5882 17.25 39.2543 17.25 38.9062C17.2523 37.3095 17.7828 35.7585 18.7589 34.4948C19.735 33.2312 21.1017 32.3261 22.646 31.9204C22.2242 34.4248 22.7252 36.9971 24.056 39.1601C25.3869 41.323 27.4572 42.9297 29.8828 43.6821C28.7444 44.9729 27.1823 45.8145 25.4782 46.0551C23.774 46.2958 22.04 45.9197 20.5887 44.9946C20.4436 44.8952 20.2801 44.8259 20.1077 44.791C19.9354 44.756 19.7578 44.756 19.5855 44.791C19.4132 44.826 19.2496 44.8953 19.1046 44.9947C18.9595 45.0941 18.836 45.2217 18.7412 45.3698C18.6464 45.5179 18.5823 45.6835 18.5528 45.8569C18.5233 46.0302 18.5289 46.2077 18.5693 46.3789C18.6097 46.55 18.6841 46.7113 18.7881 46.8531C18.892 46.995 19.0234 47.1144 19.1745 47.2045C20.2679 47.9018 21.4883 48.3762 22.7656 48.6003C24.0429 48.8245 25.3519 48.7941 26.6174 48.5109C27.8829 48.2276 29.08 47.6971 30.1399 46.9498C31.1997 46.2025 32.1015 45.2531 32.7933 44.1562H33H33.2067C33.8984 45.2541 34.8004 46.2044 35.8607 46.9525C36.921 47.7005 38.1188 48.2315 39.3851 48.515C40.6514 48.7984 41.9612 48.8287 43.2393 48.6041C44.5173 48.3795 45.7383 47.9044 46.8321 47.2062C46.9831 47.1161 47.1145 46.9966 47.2185 46.8548C47.3224 46.7129 47.3968 46.5517 47.4372 46.3805C47.4777 46.2094 47.4833 46.0319 47.4537 45.8585C47.4242 45.6852 47.3602 45.5195 47.2654 45.3714C47.1706 45.2233 47.047 45.0957 46.902 44.9963C46.7569 44.8969 46.5934 44.8276 46.4211 44.7926C46.2488 44.7576 46.0711 44.7576 45.8988 44.7926C45.7265 44.8276 45.5629 44.8968 45.4179 44.9962C43.9666 45.9213 42.2325 46.2974 40.5284 46.0568C38.8242 45.8161 37.2621 44.9745 36.1237 43.6837C38.5481 42.9301 40.6169 41.3228 41.9465 39.16C43.2761 36.9972 43.7761 34.4256 43.354 31.9221C44.898 32.3276 46.2646 33.2325 47.2406 34.4958C48.2166 35.7591 48.7473 37.3098 48.75 38.9062C48.75 39.2543 48.8883 39.5882 49.1344 39.8343C49.3806 40.0805 49.7144 40.2187 50.0625 40.2187C50.4106 40.2187 50.7444 40.0805 50.9906 39.8343C51.2367 39.5882 51.375 39.2543 51.375 38.9062C51.372 36.4579 50.4577 34.0983 48.8103 32.2871C47.1629 30.4759 44.9002 29.3428 42.4631 29.1084ZM33 25.7812C34.0995 25.781 35.1869 26.0114 36.1918 26.4576C37.1968 26.9038 38.0969 27.5559 38.8341 28.3718C38.1642 29.2914 37.2865 30.0396 36.2725 30.5555C35.2585 31.0714 34.1369 31.3403 32.9992 31.3403C31.8615 31.3403 30.7399 31.0714 29.7259 30.5555C28.7119 30.0396 27.8341 29.2914 27.1643 28.3718C27.9015 27.5556 28.8019 26.9032 29.8071 26.457C30.8124 26.0107 31.9001 25.7805 33 25.7812ZM33.0197 33.9712L33 34.004L32.9803 33.9712H33.0197ZM25.125 33.6562C25.1246 33.0118 25.2039 32.3698 25.3613 31.7449C26.4342 31.8785 27.4634 32.2515 28.373 32.8362C29.2825 33.4209 30.049 34.2024 30.616 35.1231C31.1829 36.0438 31.5358 37.0801 31.6486 38.1554C31.7614 39.2308 31.6311 40.3177 31.2675 41.336C29.5252 40.9409 27.9686 39.966 26.8527 38.5708C25.7367 37.1756 25.1276 35.4428 25.125 33.6562ZM34.7341 41.336C34.3705 40.3177 34.2403 39.2308 34.3531 38.1554C34.4658 37.0801 34.8187 36.0438 35.3857 35.1231C35.9526 34.2024 36.7192 33.4209 37.6287 32.8362C38.5382 32.2515 39.5674 31.8785 40.6404 31.7449C40.8948 32.7629 40.9432 33.8216 40.7827 34.8586C40.6222 35.8956 40.2561 36.89 39.7059 37.7835C39.1557 38.6771 38.4324 39.4516 37.5786 40.0616C36.7248 40.6717 35.7577 41.105 34.7341 41.336Z" fill="#37437D"/>
<path d="M57.958 7.10437L6.95801 58.1044" stroke="#F26CF9" stroke-width="3"/>
</svg>
