<svg width="66" height="66" viewBox="0 0 66 66" fill="none" xmlns="http://www.w3.org/2000/svg">
<rect x="2.0625" y="2" width="62" height="62" rx="31" stroke="#F26CF9" stroke-width="3"/>
<g clip-path="url(#clip0_481_2876)">
<path d="M52.8699 22.0439L44.3781 17.4141C44.1857 17.3076 43.9696 17.2512 43.7497 17.25H38.4997C38.1516 17.25 37.8178 17.3883 37.5716 17.6344C37.3255 17.8806 37.1872 18.2144 37.1872 18.5625C37.1872 19.6068 36.7724 20.6083 36.0339 21.3467C35.2955 22.0852 34.294 22.5 33.2497 22.5C32.2054 22.5 31.2039 22.0852 30.4655 21.3467C29.7271 20.6083 29.3122 19.6068 29.3122 18.5625C29.3122 18.2144 29.1739 17.8806 28.9278 17.6344C28.6816 17.3883 28.3478 17.25 27.9997 17.25H22.7497C22.5293 17.2509 22.3126 17.3073 22.1197 17.4141L13.6295 22.0439C13.0242 22.3638 12.5706 22.9105 12.3679 23.5644C12.1652 24.2183 12.2301 24.9258 12.5483 25.5319L15.7098 31.571C15.9397 32.0052 16.2842 32.368 16.706 32.62C17.1278 32.8719 17.6105 33.0034 18.1018 33H21.4372V46.125C21.4372 46.8212 21.7138 47.4889 22.2061 47.9812C22.6983 48.4734 23.366 48.75 24.0622 48.75H42.4372C43.1334 48.75 43.8011 48.4734 44.2934 47.9812C44.7856 47.4889 45.0622 46.8212 45.0622 46.125V33H48.3992C48.8905 33.0034 49.3733 32.8719 49.7951 32.62C50.2168 32.368 50.5614 32.0052 50.7913 31.571L53.9528 25.5319C54.2708 24.9256 54.3355 24.2179 54.1325 23.564C53.9295 22.9101 53.4755 22.3635 52.8699 22.0439ZM18.1018 30.375C18.0776 30.3761 18.0537 30.3686 18.0346 30.3537L14.8895 24.3473L21.4372 20.7741V30.375H18.1018ZM42.4372 46.125H24.0622V19.875H26.8185C27.1213 21.3567 27.9266 22.6884 29.0982 23.6448C30.2697 24.6012 31.7357 25.1235 33.2481 25.1235C34.7604 25.1235 36.2264 24.6012 37.398 23.6448C38.5696 22.6884 39.3749 21.3567 39.6777 19.875H42.4372V46.125ZM48.4665 30.352C48.4574 30.3602 48.4468 30.3665 48.4352 30.3704C48.4237 30.3744 48.4114 30.3759 48.3992 30.375H45.0622V20.7741L51.6116 24.3473L48.4665 30.352Z" fill="#37437D"/>
</g>
<path d="M58.208 7.10437L7.20801 58.1044" stroke="#F26CF9" stroke-width="3"/>
<defs>
<clipPath id="clip0_481_2876">
<rect width="42" height="42" fill="white" transform="translate(12.25 12)"/>
</clipPath>
</defs>
</svg>
