<svg width="66" height="66" viewBox="0 0 66 66" fill="none" xmlns="http://www.w3.org/2000/svg">
<rect x="2.4375" y="2" width="62" height="62" rx="31" stroke="#F26CF9" stroke-width="3"/>
<path d="M50.1198 26.2177L21.235 17.3583C20.844 17.2443 20.4319 17.2228 20.0312 17.2955C19.6305 17.3682 19.2523 17.5332 18.9263 17.7773C18.6004 18.0215 18.3357 18.3381 18.1532 18.7022C17.9708 19.0662 17.8755 19.4678 17.875 19.875V43.5C17.875 44.1962 18.1516 44.8639 18.6438 45.3562C19.1361 45.8485 19.8038 46.125 20.5 46.125C20.751 46.1251 21.0007 46.0892 21.2416 46.0184L34.9375 41.8151V43.5C34.9375 44.1962 35.2141 44.8639 35.7063 45.3562C36.1986 45.8485 36.8663 46.125 37.5625 46.125H42.8125C43.5087 46.125 44.1764 45.8485 44.6687 45.3562C45.1609 44.8639 45.4375 44.1962 45.4375 43.5V38.5946L50.1198 37.159C50.6618 36.9962 51.137 36.6635 51.4755 36.2101C51.814 35.7567 51.9979 35.2065 52 34.6406V28.7344C51.9976 28.1688 51.8135 27.619 51.475 27.1659C51.1366 26.7128 50.6615 26.3804 50.1198 26.2177ZM34.9375 39.0703L20.5 43.5V19.875L34.9375 24.3047V39.0703ZM42.8125 43.5H37.5625V41.0096L42.8125 39.3985V43.5ZM49.375 34.6406H49.357L37.5625 38.2631V25.1119L49.357 28.7213H49.375V34.6275V34.6406Z" fill="#37437D"/>
<path d="M58.583 7.10437L7.58301 58.1044" stroke="#F26CF9" stroke-width="3"/>
</svg>
