<svg width="66" height="66" viewBox="0 0 66 66" fill="none" xmlns="http://www.w3.org/2000/svg">
<rect x="1.6875" y="2" width="62" height="62" rx="31" stroke="#F26CF9" stroke-width="3"/>
<path d="M46 21.1875H41.4522L39.216 17.8341C39.0962 17.6545 38.934 17.5073 38.7437 17.4054C38.5534 17.3035 38.3409 17.2501 38.125 17.25H27.625C27.4091 17.2501 27.1966 17.3035 27.0063 17.4054C26.816 17.5073 26.6538 17.6545 26.534 17.8341L24.2962 21.1875H19.75C18.7057 21.1875 17.7042 21.6023 16.9658 22.3408C16.2273 23.0792 15.8125 24.0807 15.8125 25.125V43.5C15.8125 44.5443 16.2273 45.5458 16.9658 46.2842C17.7042 47.0227 18.7057 47.4375 19.75 47.4375H46C47.0443 47.4375 48.0458 47.0227 48.7842 46.2842C49.5227 45.5458 49.9375 44.5443 49.9375 43.5V25.125C49.9375 24.0807 49.5227 23.0792 48.7842 22.3408C48.0458 21.6023 47.0443 21.1875 46 21.1875ZM47.3125 43.5C47.3125 43.8481 47.1742 44.1819 46.9281 44.4281C46.6819 44.6742 46.3481 44.8125 46 44.8125H19.75C19.4019 44.8125 19.0681 44.6742 18.8219 44.4281C18.5758 44.1819 18.4375 43.8481 18.4375 43.5V25.125C18.4375 24.7769 18.5758 24.4431 18.8219 24.1969C19.0681 23.9508 19.4019 23.8125 19.75 23.8125H25C25.2161 23.8126 25.429 23.7594 25.6196 23.6575C25.8102 23.5556 25.9727 23.4082 26.0927 23.2284L28.3272 19.875H37.4212L39.6573 23.2284C39.7773 23.4082 39.9398 23.5556 40.1304 23.6575C40.321 23.7594 40.5339 23.8126 40.75 23.8125H46C46.3481 23.8125 46.6819 23.9508 46.9281 24.1969C47.1742 24.4431 47.3125 24.7769 47.3125 25.125V43.5ZM32.875 26.4375C31.4473 26.4375 30.0516 26.8609 28.8645 27.6541C27.6774 28.4473 26.7521 29.5747 26.2057 30.8938C25.6594 32.2128 25.5164 33.6643 25.795 35.0646C26.0735 36.4649 26.761 37.7511 27.7706 38.7607C28.7801 39.7702 30.0664 40.4578 31.4667 40.7363C32.867 41.0148 34.3184 40.8719 35.6375 40.3255C36.9566 39.7791 38.084 38.8539 38.8772 37.6668C39.6704 36.4797 40.0938 35.084 40.0938 33.6562C40.0916 31.7424 39.3303 29.9075 37.977 28.5542C36.6237 27.2009 34.7889 26.4397 32.875 26.4375ZM32.875 38.25C31.9664 38.25 31.0783 37.9806 30.3228 37.4758C29.5674 36.971 28.9786 36.2536 28.6309 35.4142C28.2832 34.5748 28.1923 33.6512 28.3695 32.7601C28.5468 31.869 28.9843 31.0504 29.6267 30.408C30.2692 29.7655 31.0877 29.328 31.9788 29.1508C32.8699 28.9735 33.7936 29.0645 34.633 29.4122C35.4723 29.7599 36.1898 30.3487 36.6946 31.1041C37.1993 31.8595 37.4688 32.7477 37.4688 33.6562C37.4688 34.8746 36.9848 36.043 36.1233 36.9045C35.2618 37.766 34.0933 38.25 32.875 38.25Z" fill="#37437D"/>
<path d="M57.833 7.10437L6.83301 58.1044" stroke="#F26CF9" stroke-width="3"/>
</svg>
