<svg width="66" height="66" viewBox="0 0 66 66" fill="none" xmlns="http://www.w3.org/2000/svg">
<rect x="1.6875" y="2" width="62" height="62" rx="31" stroke="#F26CF9" stroke-width="3"/>
<path d="M46.6563 25.125C45.7477 25.125 44.8595 25.3944 44.1041 25.8992C43.3487 26.404 42.7599 27.1214 42.4122 27.9608C42.0645 28.8002 41.9735 29.7238 42.1508 30.6149C42.328 31.506 42.7655 32.3246 43.408 32.967C44.0504 33.6095 44.869 34.047 45.7601 34.2242C46.6512 34.4015 47.5748 34.3105 48.4142 33.9628C49.2536 33.6151 49.971 33.0263 50.4758 32.2709C50.9806 31.5155 51.25 30.6273 51.25 29.7188C51.25 28.5004 50.766 27.332 49.9045 26.4705C49.043 25.609 47.8746 25.125 46.6563 25.125ZM46.6563 31.6875C46.2669 31.6875 45.8862 31.572 45.5625 31.3557C45.2387 31.1394 44.9864 30.8319 44.8374 30.4722C44.6884 30.1124 44.6494 29.7166 44.7253 29.3347C44.8013 28.9528 44.9888 28.602 45.2641 28.3266C45.5395 28.0513 45.8903 27.8638 46.2722 27.7878C46.6541 27.7119 47.0499 27.7509 47.4097 27.8999C47.7694 28.0489 48.0769 28.3012 48.2932 28.625C48.5095 28.9487 48.625 29.3294 48.625 29.7188C48.625 30.2409 48.4176 30.7417 48.0484 31.1109C47.6792 31.4801 47.1784 31.6875 46.6563 31.6875ZM23.6875 29.7188C23.6875 28.8102 23.4181 27.922 22.9133 27.1666C22.4085 26.4112 21.6911 25.8224 20.8517 25.4747C20.0123 25.127 19.0887 25.036 18.1976 25.2133C17.3065 25.3905 16.4879 25.828 15.8455 26.4705C15.203 27.1129 14.7655 27.9315 14.5883 28.8226C14.411 29.7137 14.502 30.6373 14.8497 31.4767C15.1974 32.3161 15.7862 33.0335 16.5416 33.5383C17.297 34.0431 18.1852 34.3125 19.0938 34.3125C20.3121 34.3125 21.4805 33.8285 22.342 32.967C23.2035 32.1055 23.6875 30.9371 23.6875 29.7188ZM19.0938 31.6875C18.7044 31.6875 18.3237 31.572 18 31.3557C17.6762 31.1394 17.4239 30.8319 17.2749 30.4722C17.1259 30.1124 17.0869 29.7166 17.1628 29.3347C17.2388 28.9528 17.4263 28.602 17.7016 28.3266C17.977 28.0513 18.3278 27.8638 18.7097 27.7878C19.0916 27.7119 19.4874 27.7509 19.8472 27.8999C20.2069 28.0489 20.5144 28.3012 20.7307 28.625C20.947 28.9487 21.0625 29.3294 21.0625 29.7188C21.0625 30.2409 20.8551 30.7417 20.4859 31.1109C20.1167 31.4801 19.6159 31.6875 19.0938 31.6875ZM26.9688 26.4375C27.8773 26.4375 28.7655 26.1681 29.5209 25.6633C30.2763 25.1585 30.8651 24.4411 31.2128 23.6017C31.5605 22.7623 31.6515 21.8387 31.4742 20.9476C31.297 20.0565 30.8595 19.2379 30.217 18.5955C29.5746 17.953 28.756 17.5155 27.8649 17.3383C26.9738 17.161 26.0502 17.252 25.2108 17.5997C24.3714 17.9474 23.654 18.5362 23.1492 19.2916C22.6444 20.047 22.375 20.9352 22.375 21.8438C22.375 23.0621 22.859 24.2305 23.7205 25.092C24.582 25.9535 25.7504 26.4375 26.9688 26.4375ZM26.9688 19.875C27.3581 19.875 27.7388 19.9905 28.0625 20.2068C28.3863 20.4231 28.6386 20.7306 28.7876 21.0903C28.9367 21.4501 28.9756 21.8459 28.8997 22.2278C28.8237 22.6097 28.6362 22.9605 28.3609 23.2359C28.0855 23.5112 27.7347 23.6987 27.3528 23.7747C26.9709 23.8506 26.5751 23.8116 26.2153 23.6626C25.8556 23.5136 25.5481 23.2613 25.3318 22.9375C25.1155 22.6138 25 22.2331 25 21.8438C25 21.3216 25.2074 20.8208 25.5766 20.4516C25.9458 20.0824 26.4466 19.875 26.9688 19.875ZM38.7813 26.4375C39.6898 26.4375 40.578 26.1681 41.3334 25.6633C42.0888 25.1585 42.6776 24.4411 43.0253 23.6017C43.373 22.7623 43.464 21.8387 43.2867 20.9476C43.1095 20.0565 42.672 19.2379 42.0295 18.5955C41.3871 17.953 40.5685 17.5155 39.6774 17.3383C38.7863 17.161 37.8627 17.252 37.0233 17.5997C36.1839 17.9474 35.4665 18.5362 34.9617 19.2916C34.4569 20.047 34.1875 20.9352 34.1875 21.8438C34.1875 23.0621 34.6715 24.2305 35.533 25.092C36.3945 25.9535 37.5629 26.4375 38.7813 26.4375ZM38.7813 19.875C39.1706 19.875 39.5513 19.9905 39.875 20.2068C40.1988 20.4231 40.4511 20.7306 40.6001 21.0903C40.7491 21.4501 40.7881 21.8459 40.7122 22.2278C40.6362 22.6097 40.4487 22.9605 40.1734 23.2359C39.898 23.5112 39.5472 23.6987 39.1653 23.7747C38.7834 23.8506 38.3876 23.8116 38.0278 23.6626C37.6681 23.5136 37.3606 23.2613 37.1443 22.9375C36.928 22.6138 36.8125 22.2331 36.8125 21.8438C36.8125 21.3216 37.0199 20.8208 37.3891 20.4516C37.7583 20.0824 38.2591 19.875 38.7813 19.875ZM42.5744 36.4223C41.9077 36.0546 41.3201 35.5589 40.8452 34.9638C40.3703 34.3687 40.0173 33.6857 39.8066 32.9541C39.3702 31.4533 38.4586 30.1347 37.2086 29.1964C35.9586 28.2582 34.4379 27.7509 32.875 27.7509C31.3121 27.7509 29.7914 28.2582 28.5414 29.1964C27.2914 30.1347 26.3798 31.4533 25.9434 32.9541C25.5218 34.4263 24.5335 35.6712 23.1953 36.4158C21.9116 37.1104 20.896 38.2132 20.3093 39.5498C19.7226 40.8863 19.5983 42.3803 19.9559 43.7955C20.3136 45.2106 21.1328 46.4661 22.2841 47.3635C23.4353 48.2608 24.8529 48.7487 26.3125 48.75C27.1872 48.7525 28.0534 48.5778 28.8588 48.2365C31.4264 47.1775 34.3088 47.1775 36.8765 48.2365C38.4317 48.9129 40.1884 48.9609 41.7783 48.3705C43.3682 47.7802 44.6678 46.5972 45.4046 45.0696C46.1414 43.5421 46.2583 41.7886 45.7306 40.1768C45.203 38.565 44.0719 37.2201 42.5744 36.424V36.4223ZM39.4375 46.125C38.9046 46.1255 38.3772 46.0177 37.8871 45.8084C34.6725 44.4806 31.0627 44.4806 27.8481 45.8084C26.914 46.2106 25.8604 46.2357 24.9081 45.8785C23.9558 45.5213 23.1787 44.8095 22.7395 43.8921C22.3003 42.9747 22.2331 41.9229 22.5521 40.9572C22.871 39.9914 23.5513 39.1865 24.4504 38.711C25.4171 38.1771 26.2691 37.4579 26.9577 36.5945C27.6463 35.7311 28.1579 34.7405 28.4634 33.6792C28.7407 32.7237 29.3208 31.8841 30.1164 31.2866C30.912 30.6891 31.88 30.3661 32.875 30.3661C33.87 30.3661 34.838 30.6891 35.6336 31.2866C36.4292 31.8841 37.0093 32.7237 37.2866 33.6792C37.5931 34.7425 38.1063 35.7348 38.7969 36.5994C39.4875 37.4639 40.3419 38.1838 41.3111 38.7176C42.0852 39.1328 42.6983 39.7949 43.0527 40.5986C43.4072 41.4023 43.4828 42.3015 43.2674 43.153C43.052 44.0046 42.558 44.7598 41.864 45.2983C41.17 45.8368 40.3159 46.1278 39.4375 46.125Z" fill="#37437D"/>
<path d="M57.833 7.10437L6.83301 58.1044" stroke="#F26CF9" stroke-width="3"/>
</svg>
