<svg width="66" height="66" viewBox="0 0 66 66" fill="none" xmlns="http://www.w3.org/2000/svg">
<rect x="2.4375" y="2" width="62" height="62" rx="31" stroke="#F26CF9" stroke-width="3"/>
<path d="M19.1962 18.4969C20.8349 16.8583 23.0574 15.9377 25.3748 15.9377C27.6922 15.9377 29.9147 16.8583 31.5534 18.4969L48.2057 35.1476C49.8101 36.7933 50.7015 39.0048 50.6868 41.3031C50.6722 43.6014 49.7526 45.8013 48.1273 47.4264C46.502 49.0514 44.302 49.9707 42.0037 49.9851C39.7054 49.9994 37.494 49.1077 35.8485 47.5031L19.1945 30.8524C17.5586 29.2125 16.64 26.9907 16.6404 24.6743C16.6407 22.358 17.5598 20.1364 19.1962 18.4969ZM37.7041 45.6476C38.8504 46.7941 40.4052 47.4383 42.0265 47.4385C43.6478 47.4387 45.2028 46.7947 46.3493 45.6484C47.4959 44.5021 48.1401 42.9473 48.1402 41.3259C48.1404 39.7046 47.4965 38.1497 46.3502 37.0031L38.9526 29.6056L30.3065 38.25L37.7041 45.6476ZM21.0517 28.9969L28.4526 36.3945L37.0954 27.75L29.6962 20.3524C28.5453 19.2282 26.9976 18.6029 25.3887 18.6123C23.7799 18.6217 22.2396 19.265 21.1019 20.4027C19.9643 21.5403 19.321 23.0806 19.3116 24.6895C19.3022 26.2983 19.9274 27.846 21.0517 28.9969ZM23.5832 25.5089C23.4612 25.6308 23.3644 25.7756 23.2983 25.9349C23.2323 26.0942 23.1983 26.265 23.1983 26.4375C23.1983 26.61 23.2323 26.7808 23.2983 26.9401C23.3644 27.0995 23.4612 27.2442 23.5832 27.3661L27.5207 31.3036C27.6427 31.4254 27.7874 31.5221 27.9467 31.588C28.106 31.6539 28.2767 31.6877 28.4491 31.6877C28.6214 31.6876 28.7921 31.6536 28.9513 31.5875C29.1106 31.5215 29.2552 31.4247 29.3771 31.3028C29.4989 31.1808 29.5955 31.0361 29.6614 30.8768C29.7273 30.7175 29.7612 30.5468 29.7611 30.3744C29.7611 30.2021 29.727 30.0314 29.661 29.8721C29.595 29.7129 29.4982 29.5683 29.3763 29.4464L25.4388 25.5089C25.1926 25.263 24.8589 25.1248 24.511 25.1248C24.163 25.1248 23.8293 25.263 23.5832 25.5089Z" fill="#37437D"/>
<path d="M58.583 7.10437L7.58301 58.1044" stroke="#F26CF9" stroke-width="3"/>
</svg>
