<svg width="66" height="66" viewBox="0 0 66 66" fill="none" xmlns="http://www.w3.org/2000/svg">
<rect x="2.0625" y="2" width="62" height="62" rx="31" stroke="#F26CF9" stroke-width="3"/>
<path d="M51.6255 32.7753C51.3258 29.3397 50.0691 26.0568 47.998 23.2994C45.9268 20.5419 43.1241 18.4202 39.9081 17.1751C36.692 15.93 33.1913 15.6114 29.8033 16.2554C26.4153 16.8994 23.2757 18.4802 20.7407 20.8184C17.3565 23.9274 15.2657 28.1957 14.8837 32.7753C14.8525 33.1377 14.897 33.5027 15.0144 33.847C15.1318 34.1914 15.3195 34.5075 15.5655 34.7755C15.8116 35.0435 16.1106 35.2573 16.4437 35.4036C16.7768 35.5498 17.1367 35.6253 17.5005 35.6251H31.938V44.8126C31.938 46.2049 32.4911 47.5403 33.4757 48.5249C34.4602 49.5094 35.7956 50.0626 37.188 50.0626C38.5803 50.0626 39.9157 49.5094 40.9003 48.5249C41.8848 47.5403 42.438 46.2049 42.438 44.8126C42.438 44.4645 42.2997 44.1306 42.0535 43.8845C41.8074 43.6383 41.4736 43.5001 41.1255 43.5001C40.7774 43.5001 40.4435 43.6383 40.1974 43.8845C39.9512 44.1306 39.813 44.4645 39.813 44.8126C39.813 45.5087 39.5364 46.1764 39.0441 46.6687C38.5518 47.161 37.8842 47.4376 37.188 47.4376C36.4918 47.4376 35.8241 47.161 35.3318 46.6687C34.8395 46.1764 34.563 45.5087 34.563 44.8126V35.6251H49.0005C49.3649 35.6264 49.7257 35.5518 50.0598 35.4061C50.3938 35.2603 50.6939 35.0466 50.9408 34.7785C51.1878 34.5104 51.3762 34.1939 51.494 33.849C51.6119 33.5041 51.6567 33.1384 51.6255 32.7753ZM17.5005 33.0001C17.7914 29.619 19.1648 26.4219 21.4169 23.8834C23.669 21.3449 26.6797 19.6004 30.002 18.9087C28.0792 21.5157 25.679 26.1275 25.4034 33.0001H17.5005ZM28.0251 33.0001C28.2531 27.9519 29.7526 24.3359 31.0274 22.1326C31.656 21.038 32.4013 20.0149 33.2505 19.081C34.098 20.015 34.8417 21.0382 35.4686 22.1326C37.6473 25.8961 38.3364 29.9288 38.4709 33.0001H28.0251ZM41.0926 33.0001C40.817 26.1275 38.4168 21.5157 36.4989 18.9005C39.8234 19.5906 42.8361 21.3358 45.0887 23.8763C47.3413 26.4168 48.7133 29.6169 49.0005 33.0001H41.0926Z" fill="#37437D"/>
<path d="M58.208 7.10437L7.20801 58.1044" stroke="#F26CF9" stroke-width="3"/>
</svg>
