<svg width="66" height="66" viewBox="0 0 66 66" fill="none" xmlns="http://www.w3.org/2000/svg">
<rect x="1.8125" y="2" width="62" height="62" rx="31" stroke="#F26CF9" stroke-width="3"/>
<path d="M15.9567 17.2713C16.8129 16.4173 17.9729 15.9377 19.1821 15.9377C20.3914 15.9377 21.5514 16.4173 22.4076 17.2713L50.989 45.8625C51.1545 46.0282 51.2727 46.2352 51.3313 46.462C51.3899 46.6888 51.3867 46.9271 51.3221 47.1523C51.2575 47.3774 51.1338 47.5812 50.9639 47.7424C50.7939 47.9036 50.5839 48.0164 50.3557 48.0691C48.4082 48.5205 46.4157 48.749 44.4166 48.75C39.0107 48.75 33.6016 47.0765 28.5107 43.7904C23.3001 40.4271 20.2764 36.6011 20.1436 36.4387C19.9458 36.1863 19.8473 35.8702 19.8666 35.5501C19.886 35.23 20.0218 34.9281 20.2486 34.7013L23.5938 31.3593L15.9567 23.7206C15.1036 22.8642 14.6246 21.7047 14.6246 20.4959C14.6246 19.2872 15.1036 18.1277 15.9567 17.2713ZM22.9736 35.6972C25.0554 37.966 27.4184 39.9596 30.0054 41.6297C35.654 45.2554 41.4799 46.7025 47.3582 45.9445L30.0447 28.6244L22.9736 35.6972ZM17.8122 21.8667L25.451 29.5054L28.1875 26.7656L20.5504 19.1268C20.1873 18.7637 19.6948 18.5597 19.1813 18.5597C18.6678 18.5597 18.1753 18.7637 17.8122 19.1268C17.4491 19.49 17.2451 19.9824 17.2451 20.4959C17.2451 21.0095 17.4491 21.5019 17.8122 21.865V21.8667Z" fill="#37437D"/>
<path d="M57.958 7.10437L6.95801 58.1044" stroke="#F26CF9" stroke-width="3"/>
</svg>
